<?xml version="1.0" standalone="no"?>
<!DOCTYPE svg PUBLIC "-//W3C//DTD SVG 20010904//EN"
 "http://www.w3.org/TR/2001/REC-SVG-20010904/DTD/svg10.dtd">
<svg version="1.0" xmlns="http://www.w3.org/2000/svg"
 width="2000.000000pt" height="2000.000000pt" viewBox="0 0 2000.000000 2000.000000"
 preserveAspectRatio="xMidYMid meet">

<g transform="translate(0.000000,2000.000000) scale(0.100000,-0.100000)"
fill="#000000" stroke="none">
<path d="M0 10000 l0 -10000 4750 0 4750 0 0 595 0 595 500 0 500 0 0 -595 0
-595 4750 0 4750 0 0 10000 0 10000 -4750 0 -4750 0 0 -695 0 -695 -500 0
-500 0 0 695 0 695 -4750 0 -4750 0 0 -10000z m10450 6980 c922 -29 1662 -149
2350 -380 1311 -440 2194 -1253 2622 -2415 229 -621 335 -1372 307 -2187 -8
-259 -11 -304 -35 -523 -126 -1163 -557 -2097 -1295 -2809 -789 -760 -1880
-1231 -3257 -1405 -497 -63 -919 -81 -1934 -81 l-758 0 0 -2705 0 -2705 -1615
0 -1615 0 0 7610 0 7610 2463 0 c1358 0 2599 -5 2767 -10z"/>
<path d="M8450 12086 l0 -2256 699 0 c810 0 1004 11 1361 76 950 174 1561 621
1823 1334 146 396 184 936 101 1440 -73 444 -257 822 -523 1073 -321 303 -763
478 -1406 558 -173 22 -217 23 -1117 26 l-938 4 0 -2255z"/>
</g>
</svg>
